<svg xmlns="http://www.w3.org/2000/svg" viewBox="0 0 32 32">
  <defs>
    <linearGradient id="g1" x1="0%" y1="0%" x2="100%" y2="100%">
      <stop offset="0%" style="stop-color:#6366F1"/>
      <stop offset="50%" style="stop-color:#8B5CF6"/>
      <stop offset="100%" style="stop-color:#A855F7"/>
    </linearGradient>
    <linearGradient id="g2" x1="0%" y1="100%" x2="100%" y2="0%">
      <stop offset="0%" style="stop-color:#3B82F6"/>
      <stop offset="50%" style="stop-color:#6366F1"/>
      <stop offset="100%" style="stop-color:#8B5CF6"/>
    </linearGradient>
  </defs>
  
  <rect width="32" height="32" rx="6" fill="#0F0A1F"/>
  <circle cx="16" cy="16" r="5" fill="url(#g1)" opacity="0.9"/>
  <circle cx="16" cy="8" r="3" fill="url(#g2)"/>
  <circle cx="24" cy="12" r="3" fill="url(#g1)"/>
  <circle cx="24" cy="20" r="3" fill="url(#g2)"/>
  <circle cx="16" cy="24" r="3" fill="url(#g1)"/>
  <circle cx="8" cy="20" r="3" fill="url(#g2)"/>
  <circle cx="8" cy="12" r="3" fill="url(#g1)"/>
  <g stroke="url(#g1)" stroke-width="1" opacity="0.5">
    <line x1="16" y1="16" x2="16" y2="8"/>
    <line x1="16" y1="16" x2="24" y2="12"/>
    <line x1="16" y1="16" x2="24" y2="20"/>
    <line x1="16" y1="16" x2="16" y2="24"/>
    <line x1="16" y1="16" x2="8" y2="20"/>
    <line x1="16" y1="16" x2="8" y2="12"/>
    <line x1="16" y1="8" x2="24" y2="12"/>
    <line x1="24" y1="12" x2="24" y2="20"/>
    <line x1="24" y1="20" x2="16" y2="24"/>
    <line x1="16" y1="24" x2="8" y2="20"/>
    <line x1="8" y1="20" x2="8" y2="12"/>
    <line x1="8" y1="12" x2="16" y2="8"/>
  </g>
</svg>
